<?xml version="1.0" encoding="UTF-8"?>
<svg width="12px" height="12px" viewBox="0 0 12 12" version="1.1" xmlns="http://www.w3.org/2000/svg" xmlns:xlink="http://www.w3.org/1999/xlink">
    <!-- Generator: Sketch 57.1 (83088) - https://sketch.com -->
    <title>external-link copy</title>
    <desc>Created with Sketch.</desc>
    <g id="Symbols" stroke="none" stroke-width="1" fill="none" fill-rule="evenodd">
        <g id="Footer-Copy" transform="translate(0.000000, -259.000000)" fill="#007AFF">
            <g id="Footer">
                <g id="Acesse-o-site" transform="translate(0.000000, 206.000000)">
                    <g id="external-link-copy" transform="translate(0.000000, 53.000000)">
                        <path d="M11.2580875,0 L7.11938167,0 C6.71011094,0 6.37746918,0.332906734 6.37746918,0.741912491 C6.37746918,1.15097124 6.71011094,1.48382498 7.11938167,1.48382498 L9.46705776,1.48382498 L5.55071369,5.40001007 C5.41054523,5.54012554 5.33333333,5.72645157 5.33333333,5.92475418 C5.33333333,6.12284481 5.41054523,6.30917083 5.55071369,6.44912733 C5.69082917,6.58945477 5.87715519,6.66666667 6.07524582,6.66666667 C6.27354843,6.66666667 6.45987446,6.58945477 6.59998993,6.4493393 L10.516175,2.53294224 L10.516175,4.88083031 C10.516175,5.28988906 10.8490288,5.6227428 11.2580875,5.6227428 C11.6670933,5.6227428 12,5.28988906 12,4.88083031 L12,0.741912491 C12,0.332906734 11.6670933,0 11.2580875,0 Z" id="Fill-1"></path>
                        <path d="M8.50869192,10.7309141 L1.26908586,10.7309141 L1.26908586,3.49130808 L6.71394012,3.49130808 L7.98302598,2.22222222 L0.634542931,2.22222222 C0.28401084,2.22222222 0,2.50644458 0,2.85676515 L0,11.3654571 C0,11.7159892 0.28401084,12 0.634542931,12 L9.14323485,12 C9.49355542,12 9.77777778,11.7159892 9.77777778,11.3654571 L9.77777778,4.01697402 L8.50869192,5.28605988 L8.50869192,10.7309141 Z" id="Fill-2"></path>
                    </g>
                </g>
            </g>
        </g>
    </g>
</svg>